<svg xmlns="http://www.w3.org/2000/svg" xmlns:xlink="http://www.w3.org/1999/xlink" viewBox="0 0 445.75 461.79"><defs><style>.cls-1,.cls-4{fill:none;}.cls-2{opacity:0.73;font-size:25px;font-family:CraftyGirls, Crafty Girls;}.cls-3{clip-path:url(#clip-path);}.cls-4{stroke:#000;stroke-miterlimit:10;stroke-width:0.75px;}</style><clipPath id="clip-path" transform="translate(-260.69 -92.21)"><rect class="cls-1" x="45.73" y="148.01" width="892.72" height="419.55" transform="translate(-96.44 203.54) rotate(-21.33)"/></clipPath></defs><title>creative ring</title><g id="Layer_2" data-name="Layer 2"><g id="Layer_1-2" data-name="Layer 1"><text class="cls-2" transform="translate(53.41 101.95) rotate(-48.35)">C</text><text class="cls-2" transform="matrix(0.72, -0.7, 0.7, 0.72, 65.92, 88.04)">r</text><text class="cls-2" transform="translate(74.77 79.36) rotate(-40.78)">e</text><text class="cls-2" transform="translate(85.58 69.98) rotate(-36.77)">a</text><text class="cls-2" transform="translate(98.67 60.3) rotate(-33.24)">t</text><text class="cls-2" transform="matrix(0.86, -0.52, 0.52, 0.86, 107.66, 54.46)">i</text><text class="cls-2" transform="matrix(0.88, -0.48, 0.48, 0.88, 111.99, 51.74)">v</text><text class="cls-2" transform="translate(123.44 45.43) rotate(-25.1)">e</text><text class="cls-2" transform="translate(136.48 39.39) rotate(-21.97)"> </text><text class="cls-2" transform="translate(145 35.83) rotate(-18.59)">a</text><text class="cls-2" transform="translate(160.47 30.71) rotate(-15.01)">t</text><text class="cls-2" transform="translate(170.77 27.97) rotate(-12.36)"> </text><text class="cls-2" transform="matrix(0.99, -0.16, 0.16, 0.99, 179.81, 25.92)">h</text><text class="cls-2" transform="matrix(1, -0.1, 0.1, 1, 193.06, 23.72)">e</text><text class="cls-2" transform="matrix(1, -0.03, 0.03, 1, 207.33, 22.25)">a</text><text class="cls-2" transform="translate(223.59 21.83) rotate(2.02)">r</text><text class="cls-2" transform="translate(236.01 22.28) rotate(5.03)">t</text><g class="cls-3"><circle class="cls-4" cx="222.88" cy="238.92" r="222.5"/></g></g></g></svg>